<svg id="Layer_1" data-name="Layer 1" xmlns="http://www.w3.org/2000/svg" viewBox="0 0 352 352"><defs><style>.cls-1{fill:#fff;stroke-width:10px;}.cls-1,.cls-8{stroke:#000;}.cls-1,.cls-2,.cls-3,.cls-4,.cls-5,.cls-6,.cls-7,.cls-8,.cls-9{stroke-miterlimit:10;}.cls-2{fill:red;stroke:red;}.cls-3{fill:#ffab40;stroke:#ffab40;}.cls-4,.cls-7{fill:#ff5252;}.cls-4{stroke:#ff5252;}.cls-5{fill:#212121;}.cls-5,.cls-7,.cls-9{stroke:#212121;}.cls-6{fill:#ffe57f;stroke:#ffe57f;}.cls-9{fill:none;}.cls-10{font-size:36px;font-family:Raleway-Bold, Raleway;font-weight:700;}.cls-11{letter-spacing:-0.02em;}.cls-12{letter-spacing:0em;}.cls-13{letter-spacing:-0.03em;}.cls-14{letter-spacing:0em;}</style></defs><title>RocketLogo</title><circle class="cls-1" cx="176" cy="176" r="171"/><path class="cls-2" d="M180.53,290.17a108.4,108.4,0,0,1-68.41,48.74A131.78,131.78,0,0,1,160,269.64" transform="translate(-48 -52)"/><path class="cls-3" d="M181.39,285.84a80.42,80.42,0,0,1-17.13,19.67A81.43,81.43,0,0,1,130.62,322a98.8,98.8,0,0,1,17.77-34.27,97.56,97.56,0,0,1,17.77-17.13" transform="translate(-48 -52)"/><path class="cls-4" d="M144.61,323.52" transform="translate(-48 -52)"/><path class="cls-5" d="M161.22,260.21a65.52,65.52,0,0,0-30.83-9.07c-23.29-.8-39.58,11.43-44.14,15.12,2.66-5.59,14.67-29.21,42.93-40.51a81.6,81.6,0,0,1,51.75-2.67" transform="translate(-48 -52)"/><path class="cls-5" d="M191.81,290a65.52,65.52,0,0,1,9.07,30.83c.81,23.29-11.42,39.58-15.11,44.14,5.69-2.73,29.16-14.78,40.51-42.93a82,82,0,0,0,3-51.39" transform="translate(-48 -52)"/><path class="cls-4" d="M186.51,295.3A252.18,252.18,0,0,0,337.87,115.72,249.61,249.61,0,0,0,155.73,264.51Z" transform="translate(-48 -52)"/><circle class="cls-6" cx="227.45" cy="124.43" r="17.1"/><path class="cls-7" d="M154.45,388.74" transform="translate(-48 -52)"/><path class="cls-5" d="M325.9,154.2a162.11,162.11,0,0,0,12-38.48c-5.68,1.15-11.69,2.55-18,4.28-7.34,2-14.15,4.23-20.41,6.5Z" transform="translate(-48 -52)"/><path class="cls-4" d="M284,118.29" transform="translate(-48 -52)"/><path class="cls-8" d="M343,151.64" transform="translate(-48 -52)"/><line class="cls-9" x1="107.73" y1="212.51" x2="107.73" y2="212.51"/><text class="cls-10" transform="translate(227.76 247.7) rotate(-45)"><tspan class="cls-11">R</tspan><tspan class="cls-12" x="23.4" y="0">oc</tspan><tspan class="cls-13" x="65.52" y="0">k</tspan><tspan class="cls-14" x="84.64" y="0">e</tspan><tspan x="106.06" y="0">t</tspan></text></svg>